<svg width="1200" height="1200" viewBox="0 0 1200 1200" fill="none" xmlns="http://www.w3.org/2000/svg">
  <rect width="1200" height="1200" fill="#f4f7f5"/>
  <circle cx="610" cy="560" r="405" fill="#dce9e2"/>
  <path d="M356 458C356 355.828 438.828 273 541 273H659C761.172 273 844 355.828 844 458V855C844 903.601 804.601 943 756 943H444C395.399 943 356 903.601 356 855V458Z" fill="#173f38"/>
  <path d="M418 451C418 384.726 471.726 331 538 331H662C728.274 331 782 384.726 782 451V840C782 862.091 764.091 880 742 880H458C435.909 880 418 862.091 418 840V451Z" fill="#2a6f62"/>
  <path d="M482 435C482 397.445 512.445 367 550 367H650C687.555 367 718 397.445 718 435V521C718 543.091 700.091 561 678 561H522C499.909 561 482 543.091 482 521V435Z" fill="#f5c84c"/>
  <path d="M466 633C466 599.863 492.863 573 526 573H674C707.137 573 734 599.863 734 633V726C734 748.091 716.091 766 694 766H506C483.909 766 466 748.091 466 726V633Z" fill="#f7f0d2"/>
  <path d="M325 519C325 491.386 347.386 469 375 469H418V809H375C347.386 809 325 786.614 325 759V519Z" fill="#102f2a"/>
  <path d="M782 469H825C852.614 469 875 491.386 875 519V759C875 786.614 852.614 809 825 809H782V469Z" fill="#102f2a"/>
  <path d="M511 853H689" stroke="#f4f7f5" stroke-width="28" stroke-linecap="round"/>
  <path d="M536 270C536 227.474 570.474 193 613 193C655.526 193 690 227.474 690 270" stroke="#173f38" stroke-width="38" stroke-linecap="round"/>
  <text x="600" y="678" text-anchor="middle" font-family="Arial, sans-serif" font-size="46" font-weight="700" fill="#173f38">AERO</text>
</svg>
